<svg xmlns="http://www.w3.org/2000/svg" xmlns:xlink="http://www.w3.org/1999/xlink" version="1.1" width="48" height="48" viewBox="0 0 100 100">


		<defs>
			<g id="background">
<path fill="url(#background-gradient)" stroke="none" d=" M 97.2 2.8 Q 94.35 0 90.6 0 L 9.4 0 Q 5.55 0 2.8 2.8 0 5.55 0 9.4 L 0 90.6 Q 0 94.35 2.8 97.2 5.55 100 9.4 100 L 90.6 100 Q 94.35 100 97.2 97.2 100 94.35 100 90.6 L 100 9.4 Q 100 5.55 97.2 2.8 Z"/>
</g><g id="bottom-1">
<path fill="#FFFFFF" fill-opacity="0.30196078431372547" stroke="none" d=" M 90.6 2.35 Q 94.45 2.35 97.3 5.05 99.9 7.65 100 11.55 L 100 9.4 Q 100 5.4 97.3 2.7 94.45 0 90.6 0 L 9.4 0 Q 5.4 0 2.7 2.7 0 5.4 0 9.4 L 0 11.55 Q 0.1 7.65 2.7 5.05 5.4 2.35 9.4 2.35 L 90.6 2.35 Z"/>
</g><mask id="mask">
<path fill="#FFFFFF" stroke="none" d=" M 97.2 2.8 Q 94.35 0 90.6 0 L 9.4 0 Q 5.55 0 2.8 2.8 0 5.55 0 9.4 L 0 90.6 Q 0 94.35 2.8 97.2 5.55 100 9.4 100 L 90.6 100 Q 94.35 100 97.2 97.2 100 94.35 100 90.6 L 100 9.4 Q 100 5.55 97.2 2.8 Z"/>
</mask>
			
	<linearGradient id="background-gradient" x1="0" y1="0" y2="1" x2="0">
		<stop stop-color="#C65AC6" offset="0%"/>
		<stop stop-color="#C65AC6" offset="100%"/>
	</linearGradient>

			
			
			<g transform="scale(2.0790019800736403) translate(0 0.10000228881835938)" id="picture"><path d="M47.7 7.7l-3.4-3.4c-.4-.4-1-.4-1.4 0L19.7 27.5c-.4.4-1 .4-1.4 0l-7.8-7.8c-.4-.4-1-.4-1.4 0l-3.4 3.4c-.4.4-.4 1 0 1.4l7.8 7.8c.4.4 1.1 1 1.4 1.4l3.4 3.4c.4.4 1 .4 1.4 0l3.4-3.4 1.4-1.4L47.7 9.1c.4-.4.4-1 0-1.4z M31.2 28.5l-1 1c-.8.8-1.4 2.3-1.4 3.4v5.3c0 1.1-.9 2-2 2h-21c-1.1 0-2-.9-2-2V27.5c0-1.1-.2-2.5-.3-3.2s.3-3.1.3-4.2v-2.9c0-1.1.9-2 2-2h21c1.1 0 2 .1 2 .2s.6-.5 1.4-1.3l1-1c.8-.8 1.4-1.5 1.4-1.6s-.9-.2-2-.2H2c-1.1 0-2 .9-2 2V42c0 1.1.9 2 2 2h28.6c1.1 0 2-.9 2-2V29.1c0-1.1-.6-1.4-1.4-.6z"/></g>
			
	<linearGradient id="picture-gradient" x1="0" y1="0" y2="1" x2="0">
		<stop stop-color="#ffffff" offset="0%"/>
		<stop stop-color="#ffffff" offset="100%"/>
	</linearGradient>

		</defs>

		

			<use xlink:href="#background" fill="url(#background-gradient)"/>

		

			<g mask="url(#mask)">
				<g transform="             translate(                                 50 50 )                             translate(0 0)  scale(0.5)                               translate(                                 -50 -50 )">
						<use xlink:href="#picture" fill="url(#picture-gradient)"/>
				</g>
			</g>

		<use xlink:href="#bottom-1"/>



	</svg>